<?xml version="1.0" encoding="utf-8"?>
<!-- Generator: Adobe Illustrator 21.0.2, SVG Export Plug-In . SVG Version: 6.00 Build 0)  -->
<svg version="1.1" xmlns="http://www.w3.org/2000/svg" xmlns:xlink="http://www.w3.org/1999/xlink" x="0px" y="0px"
	 viewBox="0 0 650 300" style="enable-background:new 0 0 650 300;" xml:space="preserve">
<style type="text/css">
	.st0{display:none;}
	.st1{display:inline;}
	.st2{fill:#068D9D;}
	.st3{fill:none;stroke:#000000;stroke-miterlimit:10;}
	.st4{font-family:'MyriadPro-Regular';}
	.st5{font-size:12px;}
	.st6{font-size:10px;}
	.st7{fill:none;stroke:#000000;}
</style>
<g id="plan_x5F_salle">
	<rect id="ascenceur" x="260.4" y="241.3" class="st2" width="48.3" height="20.7"/>
	<rect id="baccarat" x="568.6" y="206.7" class="st2" width="67.3" height="42.1"/>
	<rect id="corbin" x="504.1" y="206.7" class="st2" width="63.7" height="42.1"/>
	<rect id="galle" x="420.6" y="206.7" class="st2" width="82.9" height="42.1"/>
	<rect id="daum" x="358.1" y="206.7" class="st2" width="61.9" height="42.1"/>
	<rect id="longwy" x="358.1" y="177.7" class="st2" width="82.3" height="28.4"/>
	<rect id="multimedia" x="344.1" y="129.7" class="st2" width="96.3" height="47.3"/>
	<rect id="service" x="219.7" y="185.6" class="st2" width="123.8" height="20.6"/>
	<rect id="amphi" x="219.7" y="60.6" class="st2" width="123.8" height="124.3"/>
	<rect id="lamour" x="219.7" y="19" class="st2" width="123.8" height="41"/>
	<rect id="administration" x="71.2" y="228.2" class="st2" width="128.1" height="33.8"/>
	<rect id="gruber" x="16" y="206.9" class="st2" width="54.5" height="55.1"/>
	<rect id="reprographie" x="16" y="169.7" class="st2" width="90" height="36.5"/>
	<rect id="convivialite" x="16" y="106" class="st2" width="90" height="63"/>
	<rect id="cuisine" x="16" y="78.2" class="st2" width="90" height="27"/>
	<rect id="majorelle" x="16" y="19" class="st2" width="90" height="58.6"/>
</g>
<g id="contour_x5F_salles">
	<path class="st3" d="M217,262.1"/>
	<polyline class="st3" points="217,262.1 202,262.1 115.7,262.1 65.7,262.1 15.6,262.1 15.6,18.4 128.8,18.4 128.5,206.2 
		196.1,206.2 196.1,19 343.8,19 343.8,129 440.7,129.1 440.7,206.3 636.2,206.4 636.2,262.1 310.2,262.1 242,262.1 	"/>
	<polyline class="st3" points="106.3,18.4 106.3,67.1 106.3,107.6 106.3,152.6 106.3,173.6 106.3,206.5 70.8,206.5 70.8,227.6 
		106.3,227.6 166.7,227.6 199.7,227.6 199.7,262 	"/>
	<polyline class="st3" points="219.3,19 219.3,72.2 219.3,119.8 219.3,188.9 219.3,206.5 271.8,206.5 328.8,206.5 343.7,206.5 
		343.7,177.5 357.5,177.5 357.5,249.5 427,249.5 458.9,249.5 496.8,249.5 558.8,249.5 600.8,249.5 635.8,249.5 	"/>
	<path class="st3" d="M259.9,262v-21.1c49.1,0,49.1,0,49.1,0V262"/>
	<line class="st3" x1="217" y1="259.2" x2="217" y2="265.9"/>
	<line class="st3" x1="242" y1="259.2" x2="242" y2="265.9"/>
</g>
<g id="texte_x5F_salle">
	<text transform="matrix(1 0 0 1 28.2995 131.75)"><tspan x="0" y="0" class="st4 st5">Restauration</tspan><tspan x="-3.2" y="14.4" class="st4 st5">et convivialité</tspan></text>
	<text transform="matrix(1 0 0 1 42.4612 94.7708)" class="st4 st5">Cuisine</text>
	<text transform="matrix(1 0 0 1 37.4611 53.2712)" class="st4 st5">Majorelle</text>
	<text transform="matrix(1 0 0 1 24.9611 236.2712)" class="st4 st5">Grüber</text>
	<text transform="matrix(1 0 0 1 98.9611 247.8749)" class="st4 st5">Administration</text>
	<text transform="matrix(1 0 0 1 259.9611 42.3749)" class="st4 st5">Lamour</text>
	<text transform="matrix(1 0 0 1 246.9611 122.375)" class="st4 st5">Amphithéâtre</text>
	<text transform="matrix(1 0 0 1 260.9611 199.375)" class="st4 st5">Services</text>
	<text transform="matrix(1 0 0 1 364.9611 155.396)" class="st4 st5">Multimédia</text>
	<text transform="matrix(1 0 0 1 373.6899 231.3653)" class="st4 st5">Daum</text>
	<text transform="matrix(1 0 0 1 379.461 194.6768)" class="st4 st5">Longwy</text>
	<text transform="matrix(1 0 0 1 448.1899 231.3652)" class="st4 st5">Gallé</text>
	<text transform="matrix(1 0 0 1 519.6277 231.3648)" class="st4 st5">Corbin</text>
	<text transform="matrix(1 0 0 1 581.6277 231.3651)" class="st4 st5">Baccarat</text>
	<text transform="matrix(1 0 0 1 262.9611 254.875)" class="st4 st6">Ascenceur</text>
	<text transform="matrix(1 0 0 1 26.9611 188.9374)" class="st4 st5">Reprographie</text>
	<text transform="matrix(1 0 0 1 209.9474 281.5833)" class="st7 st4 st5">ENTREE</text>
</g>
</svg>
